<svg width="128" height="128" viewBox="0 0 128 128" fill="none" xmlns="http://www.w3.org/2000/svg">
<g filter="url(#filter0_d)">
<path d="M41.6068 90.8571H75.2039C84.4781 90.8571 92.0024 81.8348 92.0024 70.7143H97.602C109.956 70.7143 120 58.6705 120 43.8571C120 29.0438 109.956 17 97.602 17H29.0079C26.6807 17 24.8083 19.2451 24.8083 22.0357V70.7143C24.8083 81.8348 32.3327 90.8571 41.6068 90.8571ZM97.602 30.4286C103.779 30.4286 108.801 36.4504 108.801 43.8571C108.801 51.2638 103.779 57.2857 97.602 57.2857H92.0024V30.4286H97.602ZM105.949 111H16.4615C8.13227 111 5.78748 97.5714 10.1621 97.5714H112.231C116.605 97.5714 114.295 111 105.949 111V111Z" fill="#ffffff"/>
<path d="M41.6068 90.8571H75.2039C84.4781 90.8571 92.0024 81.8348 92.0024 70.7143H97.602C109.956 70.7143 120 58.6705 120 43.8571C120 29.0438 109.956 17 97.602 17H29.0079C26.6807 17 24.8083 19.2451 24.8083 22.0357V70.7143C24.8083 81.8348 32.3327 90.8571 41.6068 90.8571ZM97.602 30.4286C103.779 30.4286 108.801 36.4504 108.801 43.8571C108.801 51.2638 103.779 57.2857 97.602 57.2857H92.0024V30.4286H97.602ZM105.949 111H16.4615C8.13227 111 5.78748 97.5714 10.1621 97.5714H112.231C116.605 97.5714 114.295 111 105.949 111V111Z" stroke="#ffffff"/>
</g>
<defs>
<filter id="filter0_d" x="4" y="17" width="120" height="102" filterUnits="userSpaceOnUse" color-interpolation-filters="sRGB">
<feFlood flood-opacity="0" result="BackgroundImageFix"/>
<feColorMatrix in="SourceAlpha" type="matrix" values="0 0 0 0 0 0 0 0 0 0 0 0 0 0 0 0 0 0 127 0"/>
<feOffset dy="4"/>
<feGaussianBlur stdDeviation="2"/>
<feColorMatrix type="matrix" values="0 0 0 0 0 0 0 0 0 0 0 0 0 0 0 0 0 0 0.5 0"/>
<feBlend mode="normal" in2="BackgroundImageFix" result="effect1_dropShadow"/>
<feBlend mode="normal" in="SourceGraphic" in2="effect1_dropShadow" result="shape"/>
</filter>
</defs>
</svg>
